<svg width="351" height="90" viewBox="0 0 351 90" fill="none" xmlns="http://www.w3.org/2000/svg">
<path d="M6.4 18C8.42667 17.7333 10.5333 17.5733 12.72 17.52C14.96 17.4133 16.8533 17.36 18.4 17.36C23.2533 17.36 27.3067 18.0533 30.56 19.44C33.8667 20.8267 36.5067 22.7733 38.48 25.28C40.5067 27.7333 41.9467 30.6933 42.8 34.16C43.7067 37.6267 44.16 41.44 44.16 45.6C44.16 49.3867 43.76 53.04 42.96 56.56C42.16 60.0267 40.7733 63.12 38.8 65.84C36.8267 68.5067 34.16 70.6667 30.8 72.32C27.4933 73.92 23.3333 74.72 18.32 74.72C17.6267 74.72 16.72 74.6933 15.6 74.64C14.48 74.64 13.3333 74.5867 12.16 74.48C10.9867 74.4267 9.86667 74.3733 8.8 74.32C7.73333 74.2667 6.93333 74.1867 6.4 74.08V18ZM18.72 23.28C17.9733 23.28 17.0133 23.3067 15.84 23.36C14.72 23.4133 13.7867 23.52 13.04 23.68V68.48C13.3067 68.5333 13.68 68.5867 14.16 68.64C14.6933 68.64 15.2267 68.6667 15.76 68.72C16.2933 68.72 16.8 68.7467 17.28 68.8C17.8133 68.8 18.24 68.8 18.56 68.8C22.4533 68.8 25.6 68.16 28 66.88C30.4533 65.6 32.3467 63.8933 33.68 61.76C35.0133 59.5733 35.92 57.0933 36.4 54.32C36.88 51.4933 37.12 48.5867 37.12 45.6C37.12 42.9867 36.9067 40.3733 36.48 37.76C36.0533 35.0933 35.1733 32.6933 33.84 30.56C32.56 28.4267 30.6933 26.6933 28.24 25.36C25.84 23.9733 22.6667 23.28 18.72 23.28ZM90.2888 68.96C89.3288 69.8133 88.1821 70.6133 86.8488 71.36C85.5688 72.1067 84.1554 72.7467 82.6088 73.28C81.0621 73.8133 79.4354 74.2133 77.7288 74.48C76.0754 74.8 74.3954 74.96 72.6888 74.96C69.4888 74.96 66.6621 74.48 64.2088 73.52C61.7554 72.5067 59.7021 71.0933 58.0488 69.28C56.3954 67.4133 55.1421 65.2 54.2888 62.64C53.4354 60.08 53.0088 57.2 53.0088 54C53.0088 50.64 53.4621 47.6533 54.3688 45.04C55.3288 42.4267 56.6888 40.24 58.4488 38.48C60.2088 36.72 62.3421 35.3867 64.8488 34.48C67.3554 33.52 70.1554 33.04 73.2488 33.04C75.4888 33.04 77.7021 33.3333 79.8888 33.92C82.0754 34.5067 83.9954 35.6267 85.6488 37.28C87.3554 38.88 88.6621 41.12 89.5688 44C90.4754 46.8267 90.7954 50.5067 90.5288 55.04H59.5688C59.5688 59.84 60.8488 63.44 63.4088 65.84C66.0221 68.1867 69.4888 69.36 73.8088 69.36C75.2488 69.36 76.6621 69.2 78.0488 68.88C79.4888 68.5067 80.8488 68.08 82.1288 67.6C83.4088 67.12 84.5288 66.5867 85.4888 66C86.5021 65.4133 87.2754 64.88 87.8088 64.4L90.2888 68.96ZM73.4088 38.32C71.6488 38.32 69.9688 38.5067 68.3688 38.88C66.8221 39.2533 65.4354 39.8933 64.2088 40.8C63.0354 41.6533 62.0488 42.8 61.2488 44.24C60.5021 45.6267 60.0221 47.36 59.8088 49.44H84.6888C84.4221 45.92 83.2754 43.2 81.2488 41.28C79.2754 39.3067 76.6621 38.32 73.4088 38.32ZM120.098 66.24H120.978L133.538 34H140.498L123.618 74H116.578L99.3775 34H106.738L120.098 66.24Z" fill="#34D399"/>
<path d="M147.106 18H188.706V32.64H182.786V23.92H171.186V68.08H179.986V74H155.746V68.08H164.546V23.92H153.026V32.64H147.106V18ZM200.515 37.12C202.808 35.7867 205.395 34.8267 208.275 34.24C211.155 33.6533 213.982 33.36 216.755 33.36C219.475 33.36 221.688 33.7867 223.395 34.64C225.155 35.4933 226.515 36.6133 227.475 38C228.488 39.3333 229.155 40.88 229.475 42.64C229.848 44.3467 230.035 46.08 230.035 47.84C230.035 49.8667 229.982 52.0267 229.875 54.32C229.768 56.6133 229.688 58.9067 229.635 61.2C229.635 63.8667 229.795 66.4 230.115 68.8H235.475V74H224.835L224.115 68H223.715C223.395 68.48 222.915 69.0933 222.275 69.84C221.635 70.5867 220.782 71.3333 219.715 72.08C218.702 72.7733 217.448 73.3867 215.955 73.92C214.462 74.4533 212.702 74.72 210.675 74.72C206.728 74.72 203.608 73.7067 201.315 71.68C199.022 69.6533 197.875 66.88 197.875 63.36C197.875 60.64 198.462 58.3733 199.635 56.56C200.862 54.7467 202.595 53.36 204.835 52.4C207.075 51.44 209.768 50.88 212.915 50.72C216.115 50.56 219.688 50.7733 223.635 51.36C223.902 48.9067 223.928 46.88 223.715 45.28C223.555 43.6267 223.128 42.32 222.435 41.36C221.795 40.4 220.862 39.7333 219.635 39.36C218.462 38.9333 216.995 38.72 215.235 38.72C212.835 38.72 210.542 39.0667 208.355 39.76C206.168 40.4 204.222 41.0667 202.515 41.76L200.515 37.12ZM212.275 69.36C213.768 69.36 215.155 69.12 216.435 68.64C217.715 68.16 218.835 67.5467 219.795 66.8C220.755 66.0533 221.555 65.2533 222.195 64.4C222.835 63.4933 223.315 62.64 223.635 61.84V56.24C220.862 55.76 218.302 55.52 215.955 55.52C213.608 55.52 211.582 55.7867 209.875 56.32C208.168 56.8 206.835 57.5733 205.875 58.64C204.915 59.7067 204.435 61.0933 204.435 62.8C204.435 64.56 205.022 66.1067 206.195 67.44C207.422 68.72 209.448 69.36 212.275 69.36ZM240.004 18H252.804V38.56H253.204C254.59 36.8 256.377 35.44 258.564 34.48C260.75 33.52 263.124 33.04 265.684 33.04C277.417 33.04 283.284 39.8133 283.284 53.36C283.284 60.24 281.39 65.52 277.604 69.2C273.817 72.8267 268.43 74.64 261.444 74.64C258.137 74.64 255.15 74.32 252.484 73.68C249.817 73.04 247.87 72.2933 246.644 71.44V23.36H240.004V18ZM264.884 38.4C261.684 38.4 259.097 39.3067 257.124 41.12C255.15 42.9333 253.71 45.4933 252.804 48.8V67.2C254.03 67.84 255.497 68.3467 257.204 68.72C258.91 69.0933 260.697 69.28 262.564 69.28C264.697 69.28 266.617 68.9867 268.324 68.4C270.084 67.76 271.577 66.8 272.804 65.52C274.03 64.1867 274.964 62.5067 275.604 60.48C276.297 58.4533 276.644 56.0533 276.644 53.28C276.644 51.2533 276.43 49.3333 276.004 47.52C275.577 45.7067 274.884 44.1333 273.924 42.8C273.017 41.4133 271.817 40.3467 270.324 39.6C268.83 38.8 267.017 38.4 264.884 38.4Z" fill="#F9FAFB"/>
<rect x="306" width="45" height="80" fill="#F9FAFB"/>
<rect x="293" y="10" width="45" height="80" fill="#34D399"/>
</svg>
