<svg width="651" height="286" viewBox="0 0 651 286" fill="none" xmlns="http://www.w3.org/2000/svg">
<path d="M74.5 192C74.5 198.627 79.8976 204.085 86.4641 203.189C101.788 201.097 116.06 195.022 127.179 185.694C141.151 173.973 149 158.076 149 141.5C149 124.924 141.151 109.027 127.179 97.3058C116.06 87.9776 101.788 81.9025 86.4642 79.8109C79.8976 78.9146 74.5 84.3726 74.5 91L74.5 141.5L74.5 192Z" fill="url(#paint0_linear_9_110)"/>
<path d="M630.177 132.322C638.877 136.783 638.876 149.217 630.177 153.678L426.976 257.88C418.99 261.975 409.5 256.176 409.5 247.202L409.5 38.7978C409.5 29.8237 418.99 24.025 426.976 28.1199L630.177 132.322Z" fill="url(#paint1_linear_9_110)"/>
<path d="M307.8 101H370.2V122.96H361.32V109.88H343.92V176.12H357.12V185H320.76V176.12H333.96V109.88H316.68V122.96H307.8V101ZM426.673 161.72H394.393L386.713 185H376.873L404.953 101H416.713L445.033 185H434.593L426.673 161.72ZM397.513 153.08H423.913L411.553 113.6H410.113L397.513 153.08Z" fill="url(#paint2_linear_9_110)"/>
<mask id="mask0_9_110" style="mask-type:alpha" maskUnits="userSpaceOnUse" x="410" y="72" width="180" height="145">
<rect x="410" y="72" width="180" height="145" fill="#D9D9D9"/>
</mask>
<g mask="url(#mask0_9_110)">
<path d="M305.8 101H368.2V122.96H359.32V109.88H341.92V176.12H355.12V185H318.76V176.12H331.96V109.88H314.68V122.96H305.8V101ZM424.673 161.72H392.393L384.713 185H374.873L402.953 101H414.713L443.033 185H432.593L424.673 161.72ZM395.513 153.08H421.913L409.553 113.6H408.113L395.513 153.08ZM507.546 120.2C507.546 122.2 507.226 124.24 506.586 126.32C505.946 128.4 504.986 130.36 503.706 132.2C502.426 133.96 500.786 135.52 498.786 136.88C496.786 138.24 494.426 139.28 491.706 140V140.48C494.106 140.88 496.386 141.56 498.546 142.52C500.786 143.48 502.746 144.8 504.426 146.48C506.106 148.16 507.466 150.2 508.506 152.6C509.546 155 510.066 157.84 510.066 161.12C510.066 165.44 509.146 169.2 507.306 172.4C505.546 175.52 503.186 178.08 500.226 180.08C497.346 182.08 494.026 183.56 490.266 184.52C486.506 185.48 482.666 185.96 478.746 185.96C477.386 185.96 475.786 185.96 473.946 185.96C472.106 185.96 470.186 185.88 468.186 185.72C466.186 185.64 464.186 185.48 462.186 185.24C460.186 185.08 458.426 184.8 456.906 184.4V101.72C459.866 101.24 463.306 100.84 467.226 100.52C471.146 100.2 475.426 100.04 480.066 100.04C483.186 100.04 486.346 100.32 489.546 100.88C492.826 101.36 495.786 102.36 498.426 103.88C501.066 105.32 503.226 107.36 504.906 110C506.666 112.64 507.546 116.04 507.546 120.2ZM479.706 177.32C482.266 177.32 484.746 177 487.146 176.36C489.546 175.72 491.666 174.76 493.506 173.48C495.346 172.2 496.786 170.6 497.826 168.68C498.946 166.76 499.506 164.48 499.506 161.84C499.506 158.56 498.826 155.92 497.466 153.92C496.186 151.92 494.466 150.36 492.306 149.24C490.226 148.12 487.866 147.36 485.226 146.96C482.586 146.56 479.946 146.36 477.306 146.36H466.866V176.48C467.426 176.64 468.226 176.76 469.266 176.84C470.306 176.92 471.426 177 472.626 177.08C473.826 177.16 475.066 177.24 476.346 177.32C477.626 177.32 478.746 177.32 479.706 177.32ZM473.106 137.96C474.466 137.96 476.106 137.92 478.026 137.84C479.946 137.76 481.546 137.64 482.826 137.48C484.746 136.84 486.546 136.08 488.226 135.2C489.906 134.24 491.386 133.12 492.666 131.84C494.026 130.56 495.066 129.12 495.786 127.52C496.586 125.92 496.986 124.16 496.986 122.24C496.986 119.6 496.466 117.4 495.426 115.64C494.466 113.88 493.146 112.48 491.466 111.44C489.786 110.4 487.866 109.68 485.706 109.28C483.546 108.88 481.346 108.68 479.106 108.68C476.466 108.68 474.026 108.76 471.786 108.92C469.626 109 467.986 109.16 466.866 109.4V137.96H473.106Z" fill="#D0D3D8"/>
</g>
<path d="M161.84 101H211.16V109.88H171.8V137.36H208.16V146.24H171.8V176.12H211.76V185H161.84V101ZM257.193 172.64H258.513L281.313 101H291.273L263.073 185H251.433L222.633 101H233.553L257.193 172.64Z" fill="#D0D3D8"/>
<rect x="462" y="106" width="36" height="32" rx="6" fill="#D0D3D8"/>
<rect x="464" y="143" width="36" height="37" rx="6" fill="#D0D3D8"/>
<defs>
<linearGradient id="paint0_linear_9_110" x1="149" y1="141.5" x2="-2.73196e-06" y2="141.5" gradientUnits="userSpaceOnUse">
<stop stop-color="#2C7359"/>
<stop offset="1" stop-color="#174031"/>
</linearGradient>
<linearGradient id="paint1_linear_9_110" x1="651" y1="143" x2="329" y2="143" gradientUnits="userSpaceOnUse">
<stop stop-color="#2C7359"/>
<stop offset="1" stop-color="#174031"/>
</linearGradient>
<linearGradient id="paint2_linear_9_110" x1="440" y1="79" x2="440" y2="192" gradientUnits="userSpaceOnUse">
<stop stop-color="#2C7359"/>
<stop offset="1" stop-color="#174031"/>
</linearGradient>
</defs>
</svg>
